<svg xmlns="http://www.w3.org/2000/svg" viewBox="0 0 727.94 159.79"><defs><style>.cls-1{fill:#fff;}</style></defs><g id="Camada_2" data-name="Camada 2"><g id="Camada_1-2" data-name="Camada 1"><path class="cls-1" d="M2.89,61.06H60.83q27.75,0,27.75-17.48V42.44a14.28,14.28,0,0,0-1.53-6.69A12.2,12.2,0,0,0,83,31.13a30.8,30.8,0,0,0-4.59-2.57,24.16,24.16,0,0,0-4.24-1.39A17.66,17.66,0,0,0,77.23,26,23.57,23.57,0,0,0,80.65,24a9.67,9.67,0,0,0,3-3.59,11.07,11.07,0,0,0,1.12-5V14.19q0-6.12-5.58-10T60.29.31H2.89Zm21-47.93H56.68Q64,13.13,64,18v.16Q64,23,56.68,23H23.89Zm34.6,22.78q8.28,0,8.29,5.63v.33A5.7,5.7,0,0,1,65,46q-1.8,1.8-6.48,1.8H23.89V35.91Z"/><path class="cls-1" d="M325,24.21a25.2,25.2,0,0,0-1.45-5.4,24,24,0,0,0-2.94-5.56,25.56,25.56,0,0,0-5-5.07A30.4,30.4,0,0,0,308,3.89a51.56,51.56,0,0,0-10.69-2.82A86.38,86.38,0,0,0,283.1,0H136.26A88,88,0,0,0,122,1.07a52.2,52.2,0,0,0-10.77,2.82,30.59,30.59,0,0,0-7.55,4.29,25.56,25.56,0,0,0-5,5.07,22.52,22.52,0,0,0-2.9,5.6,26.92,26.92,0,0,0-1.41,5.4,35.5,35.5,0,0,0-.33,5v2.38a35.87,35.87,0,0,0,.33,4.92,26.81,26.81,0,0,0,1.41,5.43,23.14,23.14,0,0,0,2.9,5.64,25.36,25.36,0,0,0,5.09,5.16,31.77,31.77,0,0,0,7.54,4.36A50.28,50.28,0,0,0,122,60a84.5,84.5,0,0,0,14.28,1.11H283.1A83.72,83.72,0,0,0,297.33,60,50.35,50.35,0,0,0,308,57.1a32,32,0,0,0,7.55-4.36,24.74,24.74,0,0,0,5-5.16,25.45,25.45,0,0,0,2.9-5.64A25.88,25.88,0,0,0,325,36.51a35.87,35.87,0,0,0,.33-4.92V29.21A36.3,36.3,0,0,0,325,24.21ZM305.6,30.87a14.36,14.36,0,0,1-1,5.4,15.31,15.31,0,0,1-3.5,5,17.55,17.55,0,0,1-7.55,4,42.64,42.64,0,0,1-11.11,1.46H138a44.06,44.06,0,0,1-12.34-1.5,16.85,16.85,0,0,1-7.5-4.05,16,16,0,0,1-3.43-5.08,14.32,14.32,0,0,1-1-5.4v-.95q0-15.48,24.28-15.47H282.43a46.09,46.09,0,0,1,9.22,1,24.72,24.72,0,0,1,7,2.5,13.87,13.87,0,0,1,4.2,3.65A12.81,12.81,0,0,1,305,25.55a15.24,15.24,0,0,1,.56,4.21Z"/><path class="cls-1" d="M391.5,1.09H360.4L327.81,61h20.55l5.73-11H397.8l5.74,11h20.55ZM361.13,36.53l11.55-22h6.54l11.54,22Z"/><path class="cls-1" d="M49.29,98.77V129.6c0,4.64-1.21,8.24-3.61,10.83s-6,3.87-10.93,3.87h-1a20.2,20.2,0,0,1-6.54-1A12.4,12.4,0,0,1,23,141.11,10.55,10.55,0,0,1,20.67,138a13.45,13.45,0,0,1-1.18-2.87,15.06,15.06,0,0,1-.33-2.24H0v.48a28.11,28.11,0,0,0,.89,7,23,23,0,0,0,3.17,6.87,23.71,23.71,0,0,0,5.81,6,28.4,28.4,0,0,0,9.25,4.19,48.07,48.07,0,0,0,13,1.6h4.55a42.53,42.53,0,0,0,13.16-1.88A27.07,27.07,0,0,0,59,152.45a23.94,23.94,0,0,0,5.6-6.87,27.66,27.66,0,0,0,3-7.75,38.66,38.66,0,0,0,.77-7.75V98.77Z"/><path class="cls-1" d="M122.15,96.58a106.09,106.09,0,0,0-15.91,1.1,61.47,61.47,0,0,0-12,2.89,35.28,35.28,0,0,0-8.41,4.4,27.6,27.6,0,0,0-5.61,5.21A22.73,22.73,0,0,0,77,115.93a26.38,26.38,0,0,0-1.57,5.54,34.26,34.26,0,0,0-.36,5.09V129a34.6,34.6,0,0,0,.36,5.05A26.33,26.33,0,0,0,77,139.63a23.26,23.26,0,0,0,3.24,5.78,26.88,26.88,0,0,0,5.66,5.3,36.75,36.75,0,0,0,8.4,4.48,60.17,60.17,0,0,0,12,3,102,102,0,0,0,15.91,1.14H125a101.3,101.3,0,0,0,15.87-1.14,60.31,60.31,0,0,0,11.91-3,36.75,36.75,0,0,0,8.4-4.48,26.1,26.1,0,0,0,5.62-5.3,27.09,27.09,0,0,0,4.85-11.36A34.6,34.6,0,0,0,172,129v-2.44a35.25,35.25,0,0,0-.36-5.14,24.87,24.87,0,0,0-1.61-5.53,24,24,0,0,0-3.29-5.71,27.6,27.6,0,0,0-5.61-5.21,35.28,35.28,0,0,0-8.41-4.4,61.51,61.51,0,0,0-11.91-2.89A104.28,104.28,0,0,0,125,96.58Zm27.92,31.69a13.85,13.85,0,0,1-1.12,5.54A15.83,15.83,0,0,1,145,139a19.93,19.93,0,0,1-8.41,4.07A50.25,50.25,0,0,1,125,144.54c-.63,0-1.74,0-2.14,0A50.9,50.9,0,0,1,110.28,143q-5.66-1.55-8.36-4.15a16.69,16.69,0,0,1-3.82-5.22A13.78,13.78,0,0,1,97,128.1v-1q0-15.42,25.49-15.87c.51,0,2.08,0,2.82,0a52.69,52.69,0,0,1,9.23,1,29.38,29.38,0,0,1,7.82,2.57,15.31,15.31,0,0,1,4.67,3.74,12.85,12.85,0,0,1,2.43,4.24,14.56,14.56,0,0,1,.63,4.32Z"/><path class="cls-1" d="M223.55,159.22q22.06,0,32.11-10.49c.09,4,.2,9.43.2,9.43h15V124.27h-47v11.46H250.1v.16a2.91,2.91,0,0,1-.77,1.55,11.16,11.16,0,0,1-2.69,2.23,24.79,24.79,0,0,1-4.7,2.32,39,39,0,0,1-7.45,1.79,67.08,67.08,0,0,1-10.22.73q-12.74,0-19-4.8t-6.23-11.46v-.89q0-16.33,25.38-16.34,20.45,0,23.76,8.62h22.24v-.08a17.86,17.86,0,0,0-1.07-5.57,19.22,19.22,0,0,0-3.95-6,26.29,26.29,0,0,0-7.58-5.69,49.23,49.23,0,0,0-12.78-4,96.6,96.6,0,0,0-18.83-1.63h-3.86a83.18,83.18,0,0,0-19.41,2,44,44,0,0,0-13.14,5.08,28.08,28.08,0,0,0-7.76,7.23,23.82,23.82,0,0,0-3.94,7.89,30.84,30.84,0,0,0-.94,7.68v2.27a28,28,0,0,0,1.12,7.85,26.06,26.06,0,0,0,4.17,8,29.5,29.5,0,0,0,7.84,7.32,43.21,43.21,0,0,0,12.87,5.16,76.23,76.23,0,0,0,18.48,2Z"/><path class="cls-1" d="M338.63,98.19h-31.1l-32.59,59.94h20.55l5.74-11h43.71l5.73,11h20.55Zm-30.36,35.45,11.54-22h6.54l11.55,22Z"/><path class="cls-1" d="M604.09,119a28.22,28.22,0,0,0-2.78-6.62,19.43,19.43,0,0,0-5.57-6,43.32,43.32,0,0,0-8.76-4.86,52.62,52.62,0,0,0-12.77-3.34A117.2,117.2,0,0,0,557.06,97H376.38v61.25H557.15a96.24,96.24,0,0,0,20.16-1.89,50.4,50.4,0,0,0,13.87-4.77,28,28,0,0,0,8.35-7,23.65,23.65,0,0,0,4.33-8,29.63,29.63,0,0,0,1.1-8.19v-2.47A26.86,26.86,0,0,0,604.09,119Zm-21.4,8.69q0,15.81-27.28,15.81H397.64v-32H555.41q27.29,0,27.28,15.73Z"/><path class="cls-1" d="M671.18,98.19H640.07l-32.59,59.94H628l5.73-11h43.71l5.73,11h20.56Zm-30.37,35.45,11.55-22h6.53l11.55,22Z"/><path class="cls-1" d="M707.43,93.17l5.2,46.38h10.11l5.2-46.38Zm19.38,51H708.56v15.67h18.25Z"/></g></g></svg>