<svg xmlns="http://www.w3.org/2000/svg" viewBox="0 0 1881.17 396.48"><defs><style>.cls-1{fill:#fff;}</style></defs><g id="Camada_2" data-name="Camada 2"><g id="Ñëîé_1" data-name="Ñëîé 1"><path class="cls-1" d="M140.6,199.41a269.66,269.66,0,0,1-46-3.63q-20.89-3.63-35.15-9.45a110,110,0,0,1-25.27-14.25,84.35,84.35,0,0,1-17.22-17A90.27,90.27,0,0,1,6.63,136.74a80.43,80.43,0,0,1-5.36-17.87A102.35,102.35,0,0,1,0,102.81V95.3A106,106,0,0,1,2.54,71.73Q5.08,60.6,14,46.87A83.24,83.24,0,0,1,37.27,23.31q14.4-9.85,41.08-16.58T140.6,0h11.58q34.73,0,61.27,5.83t41.08,14.24a87.49,87.49,0,0,1,23.71,19.42q9.18,11,11.86,19.69a56.38,56.38,0,0,1,2.68,16.7v2.85H223.05a28.59,28.59,0,0,0-2.12-5.57q-1.27-2.46-6.49-7.9a44.08,44.08,0,0,0-12.71-9.06q-7.48-3.63-22-6.61a168.43,168.43,0,0,0-33.46-3q-22.58,0-38.54,4.27t-24,11.78a45.5,45.5,0,0,0-11.43,15.8A47.46,47.46,0,0,0,68.89,96.6v3.11a44.35,44.35,0,0,0,3.81,18,55.65,55.65,0,0,0,12,16.83q8.19,8.16,24.28,13.07t37.83,4.93q64.66,0,76.23-33.41a1.93,1.93,0,0,0,.29-.78h69.73v2.85a56.37,56.37,0,0,1-3,17.61q-3,9.06-12.28,20.33a88.4,88.4,0,0,1-24,19.81q-14.69,8.55-41.08,14.5t-60.56,6Z"/><path class="cls-1" d="M1034.54,196.2H969.31l-18.19-35H401.25l-18.19,35H317.84L421.25,4.53H931.12ZM928.78,117.89,892.14,47.5H460.23l-36.64,70.38H928.78Z"/><path class="cls-1" d="M1303.88,144.1v52.1h-59.73V162.4q0-17.55-8.94-25.42t-30.63-7.88H1127v67.1h-59.47V7.09h153.15q82.44,0,82.45,49.06V59.2q0,30-35.23,41.43,16.08,4.58,26,15.38T1303.88,144.1Zm-62.8-75.75a16.68,16.68,0,0,0-5.87-13.22q-5.87-5.09-18.12-5.08H1127V87.16h90.11q12.26,0,18.12-5.08a17,17,0,0,0,5.87-13.48Z"/><path class="cls-1" d="M1409.55,49.54h-90.14V4.07h246.74V49.54h-90.41V196.29h-66.19Z"/><path class="cls-1" d="M1733.86.72a322.29,322.29,0,0,1,49.57,3.48q22.26,3.5,37.32,9.17a109.35,109.35,0,0,1,26.34,14q11.27,8.27,17.61,16.53A76.46,76.46,0,0,1,1875,62,78,78,0,0,1,1880,79.51a112,112,0,0,1,1.13,16.28v7.75a110.06,110.06,0,0,1-1.13,16,80.81,80.81,0,0,1-5.06,17.7,81.17,81.17,0,0,1-10.14,18.34q-6.19,8.4-17.61,16.79a113.35,113.35,0,0,1-26.34,14.21q-14.92,5.82-37.32,9.43a313.08,313.08,0,0,1-49.71,3.62H1725A315.91,315.91,0,0,1,1675.1,196q-22.55-3.61-37.47-9.43a113.48,113.48,0,0,1-26.33-14.21q-11.4-8.38-17.75-16.79a74.37,74.37,0,0,1-10.13-18.34,84.36,84.36,0,0,1-4.93-17.7,110.06,110.06,0,0,1-1.13-16V95.79a109.29,109.29,0,0,1,1.13-16.15,84.94,84.94,0,0,1,4.93-17.57,72,72,0,0,1,10.13-18.21q6.35-8.26,17.61-16.53a110.18,110.18,0,0,1,26.33-14q15.08-5.68,37.61-9.17A328,328,0,0,1,1725,.72Zm78.59,96.88a46.43,46.43,0,0,0-2-13.69,40.77,40.77,0,0,0-7.6-13.44,48.05,48.05,0,0,0-14.65-11.88q-9-4.91-24.5-8.14a166.9,166.9,0,0,0-28.91-3.13c-2.33-.06-7.24-.08-8.85,0q-79.87,1.42-79.87,50.33v3.1a44.32,44.32,0,0,0,3.52,17.57q3.53,8.27,12,16.53T1687.77,148q16.39,4.53,39.25,4.88c1.27,0,4.72,0,6.71,0q21.16-.52,36.61-4.71,17.6-4.79,26.33-12.92t12.26-16.4a44.53,44.53,0,0,0,3.52-17.57Z"/><path class="cls-1" d="M70.79,227.86V352.37H196.34v41.21H14.21V227.86Z"/><path class="cls-1" d="M341.44,225a278,278,0,0,1,42.74,3q19.19,3,32.17,7.91a94.68,94.68,0,0,1,22.71,12,74.56,74.56,0,0,1,15.18,14.25,66.09,66.09,0,0,1,8.86,15.6,67.33,67.33,0,0,1,4.37,15.14,97.21,97.21,0,0,1,1,14v6.69a95.4,95.4,0,0,1-1,13.8,69,69,0,0,1-4.37,15.26A64.34,64.34,0,0,1,439.18,373a98.48,98.48,0,0,1-22.71,12.26q-12.87,5-32.17,8.12a269.83,269.83,0,0,1-42.86,3.12h-7.68a272.13,272.13,0,0,1-43-3.12q-19.42-3.11-32.3-8.12A98.2,98.2,0,0,1,235.78,373a73.64,73.64,0,0,1-15.3-14.47,63.74,63.74,0,0,1-8.74-15.82,72,72,0,0,1-4.25-15.26,95.39,95.39,0,0,1-1-13.8v-6.69a94.84,94.84,0,0,1,1-13.92,72.5,72.5,0,0,1,4.25-15.14,62.15,62.15,0,0,1,8.74-15.71,74.48,74.48,0,0,1,15.17-14.25,94.87,94.87,0,0,1,22.71-12q13-4.9,32.42-7.91a282.8,282.8,0,0,1,43-3Zm67.75,83.52a40.32,40.32,0,0,0-1.7-11.8,35.11,35.11,0,0,0-6.56-11.58,41.4,41.4,0,0,0-12.62-10.25q-7.79-4.23-21.13-7a143.85,143.85,0,0,0-24.92-2.69c-2-.06-6.24-.08-7.63,0q-68.86,1.23-68.86,43.39v2.68a38.29,38.29,0,0,0,3,15.14,45,45,0,0,0,10.32,14.26q7.29,7.13,22.59,11.36,14.12,3.9,33.83,4.2c1.09,0,4.07,0,5.78,0q18.26-.45,31.57-4.06,15.18-4.12,22.7-11.14t10.56-14.14a38.14,38.14,0,0,0,3-15.15Z"/><path class="cls-1" d="M721.21,226.73v79.74a90.08,90.08,0,0,1-2.54,21q-2.55,10.6-10,22.86a82.59,82.59,0,0,1-19.11,21.53q-11.6,9.28-32,15.47t-46.8,6.18H602a193.85,193.85,0,0,1-36.63-3.2q-16.58-3.21-27.94-8.51A86.06,86.06,0,0,1,517.33,369a74.69,74.69,0,0,1-13.79-15.24,87.08,87.08,0,0,1-12.69-32.69,98,98,0,0,1-1.09-14.58V226.73h56.59v76.65a51.85,51.85,0,0,0,2.54,16.46,47.76,47.76,0,0,0,8.58,15q6.06,7.39,18.51,11.7t29.87,4.31q17.16,0,29.38-4.31t18.38-11.7a46.93,46.93,0,0,0,8.71-15,51.85,51.85,0,0,0,2.54-16.46V226.73Z"/><path class="cls-1" d="M863.67,396.26A233.25,233.25,0,0,1,824,393.14Q806,390,793.69,385a94.45,94.45,0,0,1-21.79-12.28,72.68,72.68,0,0,1-14.85-14.63,77.16,77.16,0,0,1-8.88-15.85,69.3,69.3,0,0,1-4.63-15.4A88.51,88.51,0,0,1,742.45,313v-6.48a91.2,91.2,0,0,1,2.19-20.32q2.19-9.6,9.86-21.43a71.87,71.87,0,0,1,20.08-20.32Q787,236,810,230.15t53.67-5.8h10q29.94,0,52.82,5t35.41,12.28a75.34,75.34,0,0,1,20.45,16.75q7.92,9.48,10.22,17a48.37,48.37,0,0,1,2.32,14.4v2.45H934.75a25,25,0,0,0-1.83-4.8q-1.09-2.12-5.6-6.81a37.93,37.93,0,0,0-11-7.81q-6.45-3.12-19-5.69a144.11,144.11,0,0,0-28.84-2.57q-19.47,0-33.23,3.68t-20.69,10.16A39.11,39.11,0,0,0,804.77,292a40.88,40.88,0,0,0-2.93,15.63v2.68a38.22,38.22,0,0,0,3.29,15.52,48.12,48.12,0,0,0,10.34,14.51q7.06,7,20.94,11.27T869,355.86q55.74,0,65.72-28.81a1.52,1.52,0,0,0,.25-.66h60.12v2.45A48.55,48.55,0,0,1,992.55,344Q990,351.84,982,361.55a76.27,76.27,0,0,1-20.68,17.08q-12.66,7.37-35.42,12.5t-52.21,5.14h-10Z"/><path class="cls-1" d="M1634.22,306.26v6.51a101.59,101.59,0,0,1-.87,13.46,72,72,0,0,1-3.92,14.86,69.4,69.4,0,0,1-7.85,15.41A66.25,66.25,0,0,1,1608,370.61a85.91,85.91,0,0,1-20.37,11.93q-11.55,4.89-28.88,7.92a223,223,0,0,1-38.46,3h-396.7a225,225,0,0,1-38.57-3q-17.43-3-29-7.92a85.91,85.91,0,0,1-20.37-11.93,68.83,68.83,0,0,1-13.73-14.11,63.92,63.92,0,0,1-7.85-15.41,75.66,75.66,0,0,1-3.81-14.86,101.59,101.59,0,0,1-.87-13.46v-6.51a100.8,100.8,0,0,1,.87-13.56,76.31,76.31,0,0,1,3.81-14.76,61.86,61.86,0,0,1,7.85-15.29,69.31,69.31,0,0,1,13.62-13.89A82.42,82.42,0,0,1,1055.88,237q11.67-4.78,29.1-7.71a233.92,233.92,0,0,1,38.57-2.93h396.7a230.17,230.17,0,0,1,38.36,2.93q17.21,2.92,28.87,7.71a82.49,82.49,0,0,1,20.38,11.72,69,69,0,0,1,13.62,13.89,65.31,65.31,0,0,1,8,15.19,70.74,70.74,0,0,1,3.93,14.75A101.62,101.62,0,0,1,1634.22,306.26Zm-53.17,1.52a42.54,42.54,0,0,0-1.52-11.5,35.36,35.36,0,0,0-5.89-11.28,38,38,0,0,0-11.33-10q-7-4.11-19-6.83a122.08,122.08,0,0,0-24.9-2.69c-1,0-389.31,0-390.32,0q-65.6,0-65.59,42.32v2.6a40.06,40.06,0,0,0,2.72,14.77,44.08,44.08,0,0,0,9.26,13.88q6.54,6.95,20.27,11.07t33.34,4.12l390.31,0q17.47-.29,30-4,13.62-4,20.38-10.85a41.54,41.54,0,0,0,9.47-13.78,40,40,0,0,0,2.73-14.76Z"/><path class="cls-1" d="M1755.13,396.47q-27,0-47.11-4.23T1676.94,382a53.57,53.57,0,0,1-17.36-14.59q-6.43-8.58-8.26-15.48a57.7,57.7,0,0,1-1.82-14.7v-2.45h59c1.29,17.52,14,26.28,48.52,26.28h13.13a152.19,152.19,0,0,0,23.58-1.45q11.17-1.44,16.27-4.12t6.8-5.46a12.41,12.41,0,0,0,1.7-6.57,11.91,11.91,0,0,0-2.91-8.46q-2.91-3.12-13.6-5.46t-30.84-2.78l-17.8-.39-13.28-.28q-88.15-2.23-88.15-48.56v-2a48.12,48.12,0,0,1,2.19-14.82q2.18-6.78,8.74-13.58A53.51,53.51,0,0,1,1680,235.66q10.56-4.68,28.53-7.69a256.4,256.4,0,0,1,41.77-3H1767a271.52,271.52,0,0,1,43.71,3.12q18.94,3.1,30.23,8a59.4,59.4,0,0,1,18.46,12q7.17,7.13,9.83,14.15a41.85,41.85,0,0,1,2.68,15v2.23h-58.77a20.57,20.57,0,0,0-1.34-4.57,19.25,19.25,0,0,0-4-5,24.08,24.08,0,0,0-8.26-5.12,75.47,75.47,0,0,0-15.18-3.57,120,120,0,0,0-20.76-1.55h-8.44c-13.59,0-22.16.78-29.44,2.33s-11.7,3.2-13.24,4.9a10.1,10.1,0,0,0-2.3,7,9.62,9.62,0,0,0,2.55,6.91q2.55,2.67,12.14,4.9t27.07,2.45l13.3.19,17.06.25q50.51.9,73,12.59t22.46,36.64V341a56.57,56.57,0,0,1-2.19,16.38q-2.17,7.23-9,14.81a53.53,53.53,0,0,1-18.09,12.69q-11.3,5.13-30.84,8.36t-45.78,3.23h-16.75Z"/><path class="cls-1" d="M1153.82,332.58h-12.29V324.4h12.29Z"/><path class="cls-1" d="M1204.85,332a50.64,50.64,0,0,1-12.49-1.39,28.5,28.5,0,0,1-8.7-3.53,19.85,19.85,0,0,1-5.3-5,17.92,17.92,0,0,1-2.82-5.51,19.18,19.18,0,0,1-.76-5.36v-1.56a21.23,21.23,0,0,1,.64-5.26,16.49,16.49,0,0,1,2.66-5.39,19,19,0,0,1,5.25-4.95,29.39,29.39,0,0,1,8.88-3.48,55.76,55.76,0,0,1,13.12-1.39h2.61a64.17,64.17,0,0,1,12.73,1.12,33.17,33.17,0,0,1,8.64,2.75,18,18,0,0,1,5.13,3.89,13.07,13.07,0,0,1,2.66,4.12,12.2,12.2,0,0,1,.73,3.81v.05h-15q-2.25-5.9-16.07-5.89-17.16,0-17.16,11.18v.61q0,4.56,4.22,7.84t12.82,3.28a44.68,44.68,0,0,0,6.91-.5,25.44,25.44,0,0,0,5-1.23,16.52,16.52,0,0,0,3.18-1.58,7.91,7.91,0,0,0,1.82-1.53,2,2,0,0,0,.52-1.06v-.11h-17.7v-7.84h31.76v23.19H1228s-.07-3.71-.13-6.45Q1221,332,1206.12,332Z"/><path class="cls-1" d="M1323.72,331.26h-13.89l-3.88-7.5H1276.4l-3.87,7.5h-13.9l22-41h21Zm-22.53-16.76-7.8-15.06H1289l-7.81,15.06Z"/><path class="cls-1" d="M1345,289.87h20.11l15.62,25.8,15.68-25.8h19.38v41.47h-14V302.63L1384,331.34h-7.6l-17.8-28.71v28.71H1345Z"/><path class="cls-1" d="M1488.44,289.72v9.44h-33.75v6.14h33v9.5h-33v6.82h34.36v9.66h-48.37V289.72Z"/></g></g></svg>