<svg xmlns="http://www.w3.org/2000/svg" viewBox="0 0 1679.46 353.97"><defs><style>.cls-1{fill:#ff7f00;}.cls-2{fill:#5d4287;}</style></defs><g id="Camada_2" data-name="Camada 2"><g id="Ñëîé_1" data-name="Ñëîé 1"><path class="cls-1" d="M125.53,178a240.84,240.84,0,0,1-41.09-3.24q-18.64-3.24-31.38-8.44A97.45,97.45,0,0,1,30.5,153.63a75.28,75.28,0,0,1-15.38-15.14,81,81,0,0,1-9.2-16.41,71.71,71.71,0,0,1-4.79-16A92.26,92.26,0,0,1,0,91.79V85.08A94.5,94.5,0,0,1,2.27,64q2.27-9.93,10.21-22.19a74.43,74.43,0,0,1,20.79-21Q46.13,12,70,6t55.58-6h10.34q31,0,54.69,5.2t36.68,12.72a78.17,78.17,0,0,1,21.17,17.34q8.21,9.83,10.59,17.57a50.33,50.33,0,0,1,2.4,14.91v2.55H199.13a24.73,24.73,0,0,0-1.89-5q-1.12-2.2-5.79-7.06a39.42,39.42,0,0,0-11.35-8.09q-6.67-3.22-19.66-5.89a149.37,149.37,0,0,0-29.87-2.66q-20.16,0-34.4,3.81T74.74,56A40.58,40.58,0,0,0,64.53,70.06a42.45,42.45,0,0,0-3,16.18V89a39.54,39.54,0,0,0,3.4,16.07,49.69,49.69,0,0,0,10.71,15q7.32,7.29,21.68,11.68t33.78,4.39q57.72,0,68-29.82a1.69,1.69,0,0,0,.26-.7h62.26v2.55A50.63,50.63,0,0,1,259,123.93q-2.65,8.1-11,18.15a79,79,0,0,1-21.42,17.69q-13.11,7.62-36.68,12.94T135.86,178Z"/><path class="cls-2" d="M923.62,175.17H865.39l-16.24-31.28H358.22L342,175.17H283.75L376.08,4H831.29ZM829.2,105.25,796.49,42.41H410.88l-32.71,62.84h451Z"/><path class="cls-1" d="M1164.07,128.65v46.52h-53.33V145q0-15.68-8-22.7t-27.34-7h-69.28v59.91H953V6.33h136.74q73.59,0,73.6,43.8v2.72q0,26.78-31.45,37,14.35,4.09,23.25,13.73T1164.07,128.65ZM1108,61a14.86,14.86,0,0,0-5.24-11.8q-5.23-4.53-16.18-4.54h-80.44V77.82h80.44q11,0,16.18-4.54a15.12,15.12,0,0,0,5.24-12Z"/><path class="cls-1" d="M1258.4,44.23h-80.47V3.64h220.29V44.23H1317.5v131h-59.1Z"/><path class="cls-1" d="M1547.94.64a288,288,0,0,1,44.26,3.11q19.86,3.12,33.32,8.19A97.7,97.7,0,0,1,1649,24.4a77,77,0,0,1,15.72,14.76,68.35,68.35,0,0,1,9.18,16.14A69.75,69.75,0,0,1,1678.45,71a101.06,101.06,0,0,1,1,14.53v6.92a99.37,99.37,0,0,1-1,14.3,72.08,72.08,0,0,1-4.52,15.8,72.85,72.85,0,0,1-9,16.38q-5.54,7.5-15.72,15a101.54,101.54,0,0,1-23.52,12.69q-13.32,5.19-33.31,8.42a280,280,0,0,1-44.39,3.23h-8a282.28,282.28,0,0,1-44.51-3.23q-20.13-3.24-33.45-8.42a101.47,101.47,0,0,1-23.51-12.69,76.33,76.33,0,0,1-15.84-15,66.44,66.44,0,0,1-9.06-16.38,75.74,75.74,0,0,1-4.4-15.8,99.38,99.38,0,0,1-1-14.3V85.52a98.85,98.85,0,0,1,1-14.42,76.23,76.23,0,0,1,4.4-15.68,64.6,64.6,0,0,1,9.06-16.26,77.16,77.16,0,0,1,15.71-14.76,98.31,98.31,0,0,1,23.52-12.46q13.46-5.07,33.57-8.19A293,293,0,0,1,1540,.64Zm70.16,86.5a41.81,41.81,0,0,0-1.76-12.23,36.42,36.42,0,0,0-6.79-12,42.66,42.66,0,0,0-13.08-10.61q-8-4.38-21.87-7.27a148.56,148.56,0,0,0-25.81-2.79c-2.08-.06-6.46-.08-7.9,0q-71.31,1.27-71.31,44.94v2.77a39.53,39.53,0,0,0,3.14,15.68q3.13,7.38,10.69,14.76t23.38,11.77q14.63,4,35,4.35c1.13,0,4.22,0,6,0q18.9-.45,32.69-4.2Q1596.22,128,1604,120.7T1615,106.05a39.7,39.7,0,0,0,3.14-15.68Z"/><path class="cls-1" d="M63.2,203.44V314.59H175.27v36.79H12.69V203.44Z"/><path class="cls-1" d="M304.82,200.86A247.45,247.45,0,0,1,343,203.54q17.13,2.69,28.73,7.06A83.93,83.93,0,0,1,392,221.34a66.71,66.71,0,0,1,13.55,12.72A58.61,58.61,0,0,1,413.43,248a60.57,60.57,0,0,1,3.9,13.52A86.91,86.91,0,0,1,418.2,274v6a85.18,85.18,0,0,1-.87,12.32,67.08,67.08,0,0,1-11.71,27.74A63.33,63.33,0,0,1,392.08,333a88,88,0,0,1-20.28,10.93q-11.49,4.49-28.72,7.26A240.49,240.49,0,0,1,304.82,354H298a242.56,242.56,0,0,1-38.37-2.78q-17.34-2.79-28.83-7.26A87.77,87.77,0,0,1,210.49,333a65.94,65.94,0,0,1-13.66-12.93,57.17,57.17,0,0,1-7.8-14.12,64.54,64.54,0,0,1-3.79-13.62,85.18,85.18,0,0,1-.87-12.32v-6a84.71,84.71,0,0,1,.87-12.43A65,65,0,0,1,189,248.08a55.5,55.5,0,0,1,7.8-14,66.45,66.45,0,0,1,13.55-12.72,84.64,84.64,0,0,1,20.27-10.74q11.6-4.38,28.94-7.06A251.83,251.83,0,0,1,298,200.86Zm60.48,74.56a35.68,35.68,0,0,0-1.52-10.54,31.41,31.41,0,0,0-5.85-10.34,37,37,0,0,0-11.27-9.14q-6.95-3.78-18.86-6.27a128.16,128.16,0,0,0-22.25-2.4c-1.79-.06-5.57-.07-6.81,0q-61.49,1.11-61.48,38.74v2.39A34.26,34.26,0,0,0,240,291.33a40.49,40.49,0,0,0,9.22,12.73q6.5,6.36,20.16,10.14,12.6,3.48,30.2,3.75c1,0,3.64,0,5.17,0a119.37,119.37,0,0,0,28.17-3.62q13.56-3.68,20.27-9.95a38,38,0,0,0,9.43-12.62,34.12,34.12,0,0,0,2.71-13.52Z"/><path class="cls-1" d="M643.86,202.43v71.19a80.26,80.26,0,0,1-2.27,18.73,72,72,0,0,1-9,20.41A73.64,73.64,0,0,1,615.57,332q-10.35,8.28-28.6,13.8t-41.78,5.52h-7.77a172.44,172.44,0,0,1-32.71-2.86,108.39,108.39,0,0,1-24.94-7.59,77.42,77.42,0,0,1-17.92-11.44,66.6,66.6,0,0,1-12.31-13.61,77.82,77.82,0,0,1-11.33-29.18,87.75,87.75,0,0,1-1-13V202.43h50.52v68.43A46.24,46.24,0,0,0,490,285.55,42.68,42.68,0,0,0,497.69,299q5.4,6.6,16.52,10.45t26.66,3.85q15.33,0,26.24-3.85T583.51,299a42,42,0,0,0,7.78-13.41,46.24,46.24,0,0,0,2.26-14.69V202.43Z"/><path class="cls-1" d="M771.05,353.78A207.84,207.84,0,0,1,735.63,351a131.8,131.8,0,0,1-27-7.28,84.28,84.28,0,0,1-19.45-11,65,65,0,0,1-13.26-13.06,68.84,68.84,0,0,1-7.93-14.15,61.21,61.21,0,0,1-4.13-13.75,79.2,79.2,0,0,1-1-12.36v-5.78a81.61,81.61,0,0,1,2-18.14q2-8.56,8.8-19.13a64.18,64.18,0,0,1,17.93-18.14q11.09-7.58,31.61-12.75t47.92-5.19H780q26.73,0,47.15,4.49t31.62,11A67.2,67.2,0,0,1,877,230.7q7.07,8.48,9.13,15.15a43.61,43.61,0,0,1,2.06,12.85v2.2H834.5a21.54,21.54,0,0,0-1.63-4.29,32.86,32.86,0,0,0-5-6.08,33.94,33.94,0,0,0-9.77-7q-5.76-2.79-17-5.08a129.13,129.13,0,0,0-25.75-2.3q-17.39,0-29.66,3.29t-18.48,9.07a35,35,0,0,0-8.8,12.16,36.66,36.66,0,0,0-2.6,13.95V277a34,34,0,0,0,2.93,13.86,42.69,42.69,0,0,0,9.24,13q6.3,6.28,18.68,10.07t29.12,3.78q49.76,0,58.67-25.71a1.34,1.34,0,0,0,.22-.6h53.67v2.2a43.52,43.52,0,0,1-2.28,13.55q-2.28,7-9.45,15.65A67.87,67.87,0,0,1,858.18,338q-11.29,6.59-31.61,11.17T780,353.78Z"/><path class="cls-2" d="M1459,273.43v5.81a90.35,90.35,0,0,1-.78,12,64.74,64.74,0,0,1-3.5,13.27,62.88,62.88,0,0,1-7,13.75,58.94,58.94,0,0,1-12.16,12.59,76.8,76.8,0,0,1-18.19,10.66,121,121,0,0,1-25.78,7.07,199.33,199.33,0,0,1-34.34,2.71H1003.07a201.2,201.2,0,0,1-34.44-2.71q-15.57-2.72-25.88-7.07a77.2,77.2,0,0,1-18.19-10.66,61.36,61.36,0,0,1-12.25-12.59,57.3,57.3,0,0,1-7-13.75,67.89,67.89,0,0,1-3.4-13.27,90.35,90.35,0,0,1-.78-12v-5.81a89.64,89.64,0,0,1,.78-12.11,68.19,68.19,0,0,1,3.4-13.17,55.43,55.43,0,0,1,7-13.66,62.24,62.24,0,0,1,12.15-12.4,74.28,74.28,0,0,1,18.2-10.46,123.83,123.83,0,0,1,26-6.88,209.08,209.08,0,0,1,34.44-2.61H1357.2a205.5,205.5,0,0,1,34.25,2.61,124,124,0,0,1,25.78,6.88,74,74,0,0,1,18.19,10.46,62,62,0,0,1,12.16,12.4,58.69,58.69,0,0,1,7.1,13.56,63,63,0,0,1,3.5,13.18A91.66,91.66,0,0,1,1459,273.43Zm-47.47,1.36a37.69,37.69,0,0,0-1.37-10.27,31.41,31.41,0,0,0-5.25-10.07,33.94,33.94,0,0,0-10.12-8.92q-6.23-3.67-16.92-6.1a109.65,109.65,0,0,0-22.23-2.4l-348.45,0q-58.56,0-58.56,37.78v2.32A35.63,35.63,0,0,0,951,290.29a39.48,39.48,0,0,0,8.26,12.4q5.84,6.19,18.1,9.87t29.76,3.69c.9,0,347.56,0,348.44,0q15.6-.25,26.81-3.56,12.16-3.59,18.19-9.68a37.08,37.08,0,0,0,8.46-12.31,35.75,35.75,0,0,0,2.44-13.17Z"/><path class="cls-1" d="M1566.92,354q-24.06,0-42.06-3.78T1497.12,341a47.77,47.77,0,0,1-15.5-13q-5.74-7.66-7.37-13.82a51.06,51.06,0,0,1-1.63-13.13v-2.18h52.68c1.15,15.64,12.53,23.46,43.32,23.46h11.72a136.73,136.73,0,0,0,21.05-1.29q10-1.31,14.52-3.68t6.07-4.88a11,11,0,0,0,1.52-5.86,10.66,10.66,0,0,0-2.6-7.56q-2.6-2.77-12.14-4.87t-27.53-2.48l-15.89-.35-11.86-.25q-78.69-2-78.69-43.35V246a43,43,0,0,1,2-13.22,32,32,0,0,1,7.8-12.13,47.92,47.92,0,0,1,15.29-10.24q9.42-4.17,25.47-6.86a228.32,228.32,0,0,1,37.29-2.68h15a242,242,0,0,1,39,2.78q16.92,2.78,27,7.16A52.64,52.64,0,0,1,1660,221.54q6.39,6.36,8.78,12.62a37.41,37.41,0,0,1,2.38,13.42v2h-52.46a18,18,0,0,0-1.19-4.07A17.34,17.34,0,0,0,1614,241a21.54,21.54,0,0,0-7.37-4.57,67.87,67.87,0,0,0-13.55-3.18,106.83,106.83,0,0,0-18.53-1.39H1567c-12.14,0-19.79.69-26.29,2.08s-10.44,2.85-11.82,4.38a9,9,0,0,0-2.06,6.26,8.57,8.57,0,0,0,2.28,6.17q2.28,2.39,10.84,4.37t24.17,2.19l11.87.17,15.23.23q45.09.79,65.14,11.23t20.05,32.71v2.78a50.24,50.24,0,0,1-2,14.62q-1.95,6.46-8,13.22a47.85,47.85,0,0,1-16.15,11.34q-10.08,4.58-27.53,7.45a252.79,252.79,0,0,1-40.86,2.89Z"/><path class="cls-2" d="M1030.09,296.93h-11v-7.31h11Z"/><path class="cls-2" d="M1075.65,296.41a45.69,45.69,0,0,1-11.15-1.24,25.87,25.87,0,0,1-7.77-3.15,17.94,17.94,0,0,1-4.73-4.47,16.1,16.1,0,0,1-2.52-4.92,17.32,17.32,0,0,1-.68-4.79v-1.39a19.12,19.12,0,0,1,.57-4.69,14.89,14.89,0,0,1,2.38-4.81,16.85,16.85,0,0,1,4.69-4.42,26,26,0,0,1,7.92-3.1,49.41,49.41,0,0,1,11.72-1.24h2.33a58.08,58.08,0,0,1,11.36,1,29.13,29.13,0,0,1,7.71,2.46,15.84,15.84,0,0,1,4.58,3.47,11.83,11.83,0,0,1,2.38,3.67,11.13,11.13,0,0,1,.65,3.4v.05h-13.42q-2-5.25-14.34-5.26Q1062,267,1062,277v.55a8.63,8.63,0,0,0,3.76,7q3.76,2.94,11.45,2.93a40.59,40.59,0,0,0,6.17-.44,23.14,23.14,0,0,0,4.49-1.1,15,15,0,0,0,2.84-1.41,6.53,6.53,0,0,0,1.62-1.37,1.73,1.73,0,0,0,.46-.94v-.1H1077v-7h28.36v20.7h-9.08s-.06-3.31-.12-5.76q-6.06,6.4-19.38,6.41Z"/><path class="cls-2" d="M1181.77,295.74h-12.4l-3.46-6.69h-26.38l-3.46,6.69h-12.4l19.66-36.61h18.77Zm-38-14.95h17.88l-7-13.45h-3.94l-7,13.44Z"/><path class="cls-2" d="M1200.75,258.8h18l13.94,23,14-23H1264v37h-12.48V270.19l-15.89,25.62h-6.78l-15.9-25.62v25.62h-12.15Z"/><path class="cls-2" d="M1328.82,258.66v8.43H1298.7v5.48h29.42v8.48H1298.7v6.09h30.67v8.62H1286.2v-37.1Z"/></g></g></svg>