<svg xmlns="http://www.w3.org/2000/svg" viewBox="0 0 2379.76 553.2"><defs><style>.cls-1{isolation:isolate;}.cls-2{fill:#ff7f00;}.cls-3{fill:#5d4287;}.cls-4{fill:#fff;}.cls-5{mix-blend-mode:multiply;}.cls-6{fill:#f6e59e;}</style></defs><g class="cls-1"><g id="Camada_2" data-name="Camada 2"><g id="Ñëîé_1" data-name="Ñëîé 1"><path class="cls-2" d="M825.83,299.23A240.75,240.75,0,0,1,784.74,296q-18.66-3.24-31.38-8.44a97.81,97.81,0,0,1-22.56-12.72,75.28,75.28,0,0,1-15.38-15.14,80.3,80.3,0,0,1-9.2-16.42,71,71,0,0,1-4.79-16A91.14,91.14,0,0,1,700.3,213v-6.71a94.51,94.51,0,0,1,2.26-21q2.28-9.94,10.21-22.2a74.73,74.73,0,0,1,20.8-21q12.85-8.77,36.67-14.79t55.59-6h10.33q31,0,54.7,5.2t36.68,12.72a78.17,78.17,0,0,1,21.17,17.34q8.19,9.82,10.59,17.57a50.58,50.58,0,0,1,2.39,14.91v2.55H899.43a25.06,25.06,0,0,0-1.89-5q-1.14-2.19-5.8-7a39.5,39.5,0,0,0-11.34-8.09q-6.67-3.24-19.66-5.89a149.44,149.44,0,0,0-29.87-2.66q-20.16,0-34.41,3.81T775,177.15a40.36,40.36,0,0,0-10.21,14.11,42.26,42.26,0,0,0-3,16.18v2.77a39.67,39.67,0,0,0,3.4,16.07,49.47,49.47,0,0,0,10.72,15q7.3,7.29,21.68,11.68t33.77,4.39q57.72,0,68.06-29.82a1.63,1.63,0,0,0,.25-.7h62.26v2.54a50.35,50.35,0,0,1-2.65,15.73q-2.64,8.09-11,18.15A78.94,78.94,0,0,1,926.9,281q-13.11,7.64-36.67,13t-54.07,5.32Z"/><path class="cls-3" d="M1623.92,296.36h-58.23l-16.24-31.28H1058.52l-16.24,31.28H984.05l92.33-171.12h455.2Zm-94.42-69.91-32.71-62.84H1111.18l-32.71,62.83h451Z"/><path class="cls-2" d="M1864.36,249.85v46.51H1811V266.18q0-15.66-8-22.69t-27.35-7h-69.28v59.9h-53.1V127.53h136.74q73.61,0,73.61,43.8v2.72q0,26.77-31.45,37,14.36,4.08,23.25,13.73T1864.36,249.85Zm-56.06-67.63a14.89,14.89,0,0,0-5.24-11.8q-5.25-4.54-16.18-4.54h-80.45V199h80.45q10.93,0,16.18-4.55a15.12,15.12,0,0,0,5.24-12Z"/><path class="cls-2" d="M1958.7,165.43h-80.47v-40.6h220.28v40.6h-80.72v131H1958.7Z"/><path class="cls-2" d="M2248.24,121.84A286.83,286.83,0,0,1,2292.5,125q19.86,3.12,33.31,8.19a97.75,97.75,0,0,1,23.52,12.45A77.45,77.45,0,0,1,2365,160.36a67.66,67.66,0,0,1,9.18,16.14,69.68,69.68,0,0,1,4.53,15.69,101.06,101.06,0,0,1,1,14.53v6.92a99.37,99.37,0,0,1-1,14.3,78.09,78.09,0,0,1-13.58,32.18,73.72,73.72,0,0,1-15.72,15,101.45,101.45,0,0,1-23.51,12.68q-13.33,5.19-33.32,8.42a278.68,278.68,0,0,1-44.38,3.23h-8a281.09,281.09,0,0,1-44.51-3.23q-20.11-3.22-33.44-8.42a101.52,101.52,0,0,1-23.52-12.68,76.85,76.85,0,0,1-15.84-15,66.41,66.41,0,0,1-9-16.38,75.74,75.74,0,0,1-4.4-15.8,99.37,99.37,0,0,1-1-14.3v-6.92a98.71,98.71,0,0,1,1-14.42,76.23,76.23,0,0,1,4.4-15.68,64.26,64.26,0,0,1,9-16.26,77.26,77.26,0,0,1,15.72-14.77,97.87,97.87,0,0,1,23.51-12.45q13.46-5.08,33.57-8.19a291.7,291.7,0,0,1,44.51-3.11Zm70.16,86.49a41.74,41.74,0,0,0-1.76-12.22,36.6,36.6,0,0,0-6.79-12,42.9,42.9,0,0,0-13.08-10.61q-8.05-4.39-21.88-7.27a148.45,148.45,0,0,0-25.81-2.79c-2.08-.06-6.46-.08-7.9,0q-71.31,1.28-71.31,44.94v2.76a39.71,39.71,0,0,0,3.14,15.69q3.15,7.38,10.69,14.76t23.39,11.76q14.63,4.05,35,4.36c1.13,0,4.21,0,6,0q18.9-.47,32.68-4.2,15.72-4.27,23.51-11.53t10.94-14.65a39.55,39.55,0,0,0,3.15-15.69Z"/><path class="cls-2" d="M763.49,324.64V435.79H875.57v36.79H713V324.64Z"/><path class="cls-2" d="M1005.11,322.05a247.61,247.61,0,0,1,38.16,2.69q17.13,2.68,28.72,7.06a84.08,84.08,0,0,1,20.27,10.73,66.75,66.75,0,0,1,13.55,12.73,58.61,58.61,0,0,1,7.91,13.92,60,60,0,0,1,3.91,13.52,88.29,88.29,0,0,1,.86,12.53v6a86.89,86.89,0,0,1-.86,12.33,61.54,61.54,0,0,1-3.91,13.62,62.33,62.33,0,0,1-7.8,14.12,63.14,63.14,0,0,1-13.55,12.92,87.41,87.41,0,0,1-20.27,10.94q-11.49,4.47-28.72,7.26a241.8,241.8,0,0,1-38.27,2.78h-6.85a243.75,243.75,0,0,1-38.37-2.78q-17.34-2.79-28.84-7.26a87.34,87.34,0,0,1-20.26-10.94,65.41,65.41,0,0,1-13.66-12.92,57.17,57.17,0,0,1-7.8-14.12,64.63,64.63,0,0,1-3.8-13.62,85.42,85.42,0,0,1-.87-12.33v-6a84.71,84.71,0,0,1,.87-12.43,65.08,65.08,0,0,1,3.8-13.52,55.33,55.33,0,0,1,7.8-14,66.75,66.75,0,0,1,13.55-12.73A84.27,84.27,0,0,1,931,331.8q11.59-4.38,28.94-7.06a251.76,251.76,0,0,1,38.37-2.69Zm60.49,74.57a36,36,0,0,0-1.52-10.54,31.41,31.41,0,0,0-5.85-10.34A36.9,36.9,0,0,0,1047,366.6q-6.93-3.78-18.86-6.27a128.86,128.86,0,0,0-22.25-2.41c-1.79-.05-5.57-.06-6.81,0q-61.47,1.11-61.47,38.74V399a34.08,34.08,0,0,0,2.71,13.52,40.46,40.46,0,0,0,9.21,12.72q6.51,6.38,20.16,10.15,12.61,3.48,30.21,3.75c1,0,3.63,0,5.16,0a119.35,119.35,0,0,0,28.18-3.63q13.55-3.67,20.27-9.94a38.15,38.15,0,0,0,9.43-12.62,34.13,34.13,0,0,0,2.71-13.53Z"/><path class="cls-2" d="M1344.16,323.63v71.19a80.26,80.26,0,0,1-2.27,18.73,72,72,0,0,1-9,20.41,73.76,73.76,0,0,1-17.06,19.22q-10.36,8.29-28.61,13.81t-41.77,5.52h-7.78a173.34,173.34,0,0,1-32.71-2.86,108.14,108.14,0,0,1-24.93-7.59,77.21,77.21,0,0,1-17.92-11.44A66.28,66.28,0,0,1,1149.84,437a77.54,77.54,0,0,1-11.33-29.18,87.79,87.79,0,0,1-1-13V323.63h50.52v68.43a46.28,46.28,0,0,0,2.27,14.69,42.72,42.72,0,0,0,7.67,13.41q5.38,6.6,16.51,10.45t26.67,3.84q15.33,0,26.23-3.84t16.41-10.45a41.77,41.77,0,0,0,7.77-13.41,46.28,46.28,0,0,0,2.27-14.69V323.63Z"/><path class="cls-2" d="M1471.35,475a207.7,207.7,0,0,1-35.42-2.8,132,132,0,0,1-27.06-7.27,84.49,84.49,0,0,1-19.45-11,64.71,64.71,0,0,1-13.25-13.06,68.84,68.84,0,0,1-7.93-14.15,61.21,61.21,0,0,1-4.13-13.75,78,78,0,0,1-1-12.36v-5.78a81.62,81.62,0,0,1,1.95-18.14q2-8.56,8.81-19.13a64.15,64.15,0,0,1,17.92-18.14q11.09-7.57,31.62-12.76t47.92-5.18h8.9q26.73,0,47.16,4.49T1559,337a67.35,67.35,0,0,1,18.25,14.95q7.07,8.48,9.13,15.15a43.61,43.61,0,0,1,2.06,12.85v2.2H1534.8a22.17,22.17,0,0,0-1.63-4.29,32.86,32.86,0,0,0-5-6.08,33.67,33.67,0,0,0-9.78-7q-5.76-2.79-17-5.09a129.11,129.11,0,0,0-25.75-2.29q-17.39,0-29.66,3.29t-18.47,9.07a34.91,34.91,0,0,0-8.8,12.16,36.47,36.47,0,0,0-2.61,14v2.39a34,34,0,0,0,2.94,13.85,42.68,42.68,0,0,0,9.23,13q6.3,6.27,18.69,10.06t29.12,3.79q49.75,0,58.67-25.71a1.52,1.52,0,0,0,.21-.6h53.68v2.19a43.26,43.26,0,0,1-2.29,13.56q-2.28,7-9.45,15.64a68,68,0,0,1-18.47,15.25q-11.3,6.58-31.62,11.16T1480.25,475Z"/><path class="cls-3" d="M2159.25,394.63v5.81a90.2,90.2,0,0,1-.78,12,63.94,63.94,0,0,1-3.5,13.27,62.27,62.27,0,0,1-7,13.76,59.67,59.67,0,0,1-12.16,12.59,77,77,0,0,1-18.19,10.66,121.13,121.13,0,0,1-25.78,7.07,199.41,199.41,0,0,1-34.34,2.71H1703.36a202,202,0,0,1-34.43-2.71q-15.57-2.71-25.88-7.07a77,77,0,0,1-18.19-10.66,61.94,61.94,0,0,1-12.26-12.59,57.15,57.15,0,0,1-7-13.76,67,67,0,0,1-3.4-13.27,88.56,88.56,0,0,1-.78-12v-5.81a88,88,0,0,1,.78-12.11,67.47,67.47,0,0,1,3.4-13.17,55.4,55.4,0,0,1,7-13.66,61.79,61.79,0,0,1,12.16-12.4A74,74,0,0,1,1643,332.83a123.33,123.33,0,0,1,26-6.88,207.73,207.73,0,0,1,34.43-2.62H2057.5a204.25,204.25,0,0,1,34.24,2.62,123.37,123.37,0,0,1,25.78,6.88,73.84,73.84,0,0,1,18.19,10.46,61.52,61.52,0,0,1,12.16,12.4,58.3,58.3,0,0,1,7.1,13.56,62.5,62.5,0,0,1,3.51,13.17A93.68,93.68,0,0,1,2159.25,394.63ZM2111.78,396a37.74,37.74,0,0,0-1.36-10.27,31.61,31.61,0,0,0-5.25-10.07,33.89,33.89,0,0,0-10.12-8.91q-6.23-3.68-16.93-6.1a109.62,109.62,0,0,0-22.22-2.4c-.88,0-347.55,0-348.45,0q-58.56,0-58.56,37.77v2.33a35.83,35.83,0,0,0,2.43,13.18,39.38,39.38,0,0,0,8.27,12.39q5.84,6.21,18.09,9.88t29.77,3.68c.9,0,347.56,0,348.44,0q15.6-.26,26.81-3.56,12.15-3.58,18.19-9.69a37.15,37.15,0,0,0,8.46-12.3,35.78,35.78,0,0,0,2.43-13.17Z"/><path class="cls-2" d="M2267.22,475.16q-24.07,0-42.06-3.78t-27.75-9.14a47.78,47.78,0,0,1-15.5-13q-5.74-7.65-7.37-13.82a51.43,51.43,0,0,1-1.62-13.12v-2.19h52.67c1.16,15.65,12.54,23.47,43.32,23.47h11.72a135.33,135.33,0,0,0,21.06-1.3q10-1.29,14.52-3.68c3-1.59,5.06-3.21,6.07-4.87a11,11,0,0,0,1.52-5.86,10.66,10.66,0,0,0-2.6-7.56q-2.61-2.79-12.14-4.87t-27.54-2.49l-15.89-.34-11.85-.25q-78.71-2-78.7-43.35v-1.79a42.66,42.66,0,0,1,2-13.22,31.87,31.87,0,0,1,7.8-12.13,47.71,47.71,0,0,1,15.28-10.24q9.43-4.19,25.48-6.86a228.19,228.19,0,0,1,37.28-2.69h15a242,242,0,0,1,39,2.79q16.91,2.78,27,7.16a52.91,52.91,0,0,1,16.48,10.73,37.07,37.07,0,0,1,8.78,12.63,37.63,37.63,0,0,1,2.38,13.42v2H2319a18.18,18.18,0,0,0-1.2-4.08,17.19,17.19,0,0,0-3.57-4.47,21.49,21.49,0,0,0-7.37-4.57,66.67,66.67,0,0,0-13.55-3.18,106.86,106.86,0,0,0-18.54-1.4h-7.53c-12.14,0-19.78.7-26.29,2.09s-10.44,2.85-11.81,4.38a9,9,0,0,0-2.06,6.26,8.54,8.54,0,0,0,2.28,6.16c1.51,1.6,5.13,3.05,10.83,4.38s13.77,2.05,24.18,2.19l11.87.17,15.22.22q45.09.79,65.15,11.24t20.05,32.71v2.78a50.58,50.58,0,0,1-2,14.62q-1.95,6.47-8,13.22a48,48,0,0,1-16.15,11.34q-10.08,4.56-27.53,7.45a254.07,254.07,0,0,1-40.87,2.89h-15Z"/><path class="cls-3" d="M1730.39,418.13h-11v-7.31h11Z"/><path class="cls-3" d="M1775.94,417.61a45.74,45.74,0,0,1-11.15-1.24,25.64,25.64,0,0,1-7.76-3.16,18,18,0,0,1-4.74-4.46,16.39,16.39,0,0,1-2.51-4.92,17.32,17.32,0,0,1-.68-4.79v-1.39a19.12,19.12,0,0,1,.57-4.69,14.73,14.73,0,0,1,2.38-4.82,17.06,17.06,0,0,1,4.68-4.41,26.32,26.32,0,0,1,7.93-3.11,49.87,49.87,0,0,1,11.72-1.24h2.32a57.3,57.3,0,0,1,11.37,1,29.8,29.8,0,0,1,7.71,2.45,16,16,0,0,1,4.57,3.48,11.65,11.65,0,0,1,2.38,3.67,10.78,10.78,0,0,1,.65,3.4v.05H1792q-2-5.26-14.34-5.26-15.31,0-15.31,10v.54a8.64,8.64,0,0,0,3.76,7q3.75,2.94,11.44,2.93a39.11,39.11,0,0,0,6.17-.45,22.16,22.16,0,0,0,4.49-1.09,15.13,15.13,0,0,0,2.85-1.41,7.18,7.18,0,0,0,1.62-1.37,1.73,1.73,0,0,0,.46-.94v-.1h-15.8v-7h28.36V417h-9.08s-.07-3.31-.13-5.76q-6.06,6.41-19.37,6.41Z"/><path class="cls-3" d="M1882.07,416.94h-12.41l-3.46-6.69h-26.37l-3.46,6.69H1824l19.67-36.61h18.77Zm-38-15H1862l-7-13.44h-4l-7,13.44Z"/><path class="cls-3" d="M1901.05,380h18l13.94,23,14-23h17.3v37h-12.47V391.39L1935.87,417h-6.78l-15.89-25.62V417h-12.15Z"/><path class="cls-3" d="M2029.12,379.86v8.43H1999v5.48h29.41v8.48H1999v6.08h30.66V417h-43.17v-37.1Z"/><path class="cls-3" d="M309.06,538.73c-92.43,0-175.65-14-247.34-41.61-9.79-3.78-22.2-9.18-31.86-17.73-1.24-.92-2.43-1.85-3.54-2.79A19.17,19.17,0,0,1,20.85,469a40.74,40.74,0,0,1-5.12-11.48c-5.27-19.71,6.43-41.41,27.84-51.6,9.62-4.58,20.76-6.9,33.1-6.9A113.47,113.47,0,0,1,99,401.37c12,2.43,23.21,6.34,34.06,10.11,2.68.94,5.42,1.9,8.16,2.82a66.43,66.43,0,0,1-.66-9.42c0-18.95,12.09-34.4,19.29-41.92a23.4,23.4,0,0,1,8.81-5.62c-1.38-56.51-3.55-97.43-6.31-118.81-6.8-52.59-34.79-167.25-35.07-168.4a14.36,14.36,0,0,1,0-6.71c0-.51,0-1,.05-1.54.46-6.85,3.91-16.79,17.79-25.3,7.95-4.87,18.88-9,32.5-12.4,25.76-6.35,60-9.7,99.08-9.7,15.48,0,31.5.54,47.6,1.61,48.85,3.26,94.62,11.07,128.88,22C495,51.47,514.72,67.65,513.39,87.58a26.35,26.35,0,0,1-2.92,10.34c-.28.75-.61,1.59-1,2.52-1.64,4.49-32.38,89-50.36,167.3a95.69,95.69,0,0,0-1.68,13.73c-.84,17.46-.84,42.53,0,74.66A24.92,24.92,0,0,1,470.51,363c7.21,7.52,19.3,23,19.3,41.92a68.14,68.14,0,0,1-.41,7.47l.41-.18c4.93-2.23,9.74-4.63,14.84-7.17,11.17-5.57,22.71-11.32,35.64-15.17a92.7,92.7,0,0,1,26-3.59c22.17,0,40.51,7.1,50.32,19.49,5.19,6.56,10.57,17.8,6.72,34.12-2.94,12.44-11.15,24.34-24.41,35.38C573.62,496.3,541,507,515.37,514c-48.73,13.25-102.11,21-163.19,23.77-14.51.66-29,1-43.11,1Z"/><path class="cls-4" d="M276.63,29c14.9,0,30.54.51,46.64,1.58,98.64,6.57,177.3,31.67,175.67,56.07a12.13,12.13,0,0,1-1.66,5.26l-1.34,3.52s-32.27,88-50.9,169.11a112.63,112.63,0,0,0-2,16.11c-1.16,24.07-.59,59.11.39,90.35,1.52-.25,2.93-.5,4.19-.72a18.29,18.29,0,0,1,3.29-.29c3.78,0,7.35,1.12,9.18,3,5.82,6.07,15.27,18.07,15.27,31.9,0,12.63-4.45,24.42-12.77,32.55a245.06,245.06,0,0,0,33.2-12.06c16.2-7.31,31.42-16.53,48.66-21.66a78.47,78.47,0,0,1,21.89-3c24.13,0,49,10.3,42.94,35.8-2.54,10.81-10.5,20-19.57,27.58C568.12,482,539.88,492.29,511.57,500c-51.78,14.09-105.88,20.86-160,23.29q-21.18.94-42.47,1c-82.91,0-166.18-11.4-242.13-40.65-10-3.84-20.5-8.7-28-15.48-1.15-.83-2.27-1.69-3.34-2.59A4.92,4.92,0,0,1,34,462.62a26.76,26.76,0,0,1-4.28-8.82c-3.66-13.66,6.14-28.16,20.07-34.78,8.22-3.91,17.49-5.5,26.88-5.5a98.65,98.65,0,0,1,19.43,2c15.45,3.13,30,9.09,44.86,13.92,8.62,2.79,17.36,5.2,26.19,7.29-7.91-8.11-12.14-19.59-12.14-31.89,0-13.83,9.45-25.83,15.27-31.9,1.83-1.91,5.4-3,9.18-3a18.1,18.1,0,0,1,3.28.29l.67.12c-1-46.71-2.95-104.41-6.73-133.69-7-54-35.37-170-35.37-170l.83,0a11.61,11.61,0,0,1-.43-3.91C143.07,42.41,200.2,29,276.63,29m0-29V0C236.42,0,201,3.5,174.09,10.12c-15.28,3.77-27.26,8.38-36.61,14.12-19.15,11.74-24,26.42-24.67,36.67,0,.31,0,.62,0,.93a29,29,0,0,0,.42,11.73c.28,1.15,28.08,115,34.78,166.81,2.56,19.81,4.61,57.1,6,108.57a34.76,34.76,0,0,0-4.56,4c-12,12.55-19.73,26.86-22.33,41.18a214.21,214.21,0,0,0-25.2-6.94,127.26,127.26,0,0,0-25.17-2.62c-14.51,0-27.74,2.79-39.32,8.31-27.72,13.18-42.69,42-35.6,68.42A54.61,54.61,0,0,0,8,475.77a33.76,33.76,0,0,0,9,11.92c1.19,1,2.44,2,3.75,3,11.3,9.83,25,15.82,35.76,20,73.36,28.25,158.33,42.57,252.54,42.57,14.32,0,29.05-.33,43.77-1,62.15-2.79,116.57-10.73,166.35-24.27,27-7.35,61.55-18.72,89-41.58,15.73-13.09,25.57-27.62,29.24-43.19,4-17.13.68-33.62-9.46-46.42-12.57-15.88-35.05-25-61.67-25A107.39,107.39,0,0,0,536.17,376c-12.45,3.7-23.34,8.83-33.76,14-4.22-16.83-14.64-29.89-21.44-37a36.64,36.64,0,0,0-9.26-6.94c-.57-26.87-.5-48.6.21-63.66A83.28,83.28,0,0,1,473.26,271c17.61-76.64,48.36-161.47,49.82-165.49.24-.61.46-1.19.66-1.72a40.54,40.54,0,0,0,4.1-15.23c.78-11.66-3-28.77-25.54-44-10.94-7.41-26-14.21-44.79-20.21C422.16,13,375.17,5,325.19,1.65,308.78.55,292.44,0,276.63,0Z"/><path class="cls-2" d="M500,88.33s-34.56,87.85-53.19,169c-7.47,32.51.92,184.09.92,184.09s-36.23,13.92-126.06,13.89c-58.41,0-135.92-13.89-135.92-13.89S185,290.67,178,236.67s-35.36-170-35.36-170Z"/><g class="cls-5"><path class="cls-2" d="M446.34,264.5C465,183.37,497.25,95.38,497.25,95.38L320.86,84.7V462.48h.34c89.84,0,126.06-13.89,126.06-13.89S438.87,297,446.34,264.5Z"/></g><ellipse class="cls-3" cx="321.63" cy="74.72" rx="44.28" ry="179.01" transform="translate(225.71 390.68) rotate(-86.19)"/><path class="cls-3" d="M476.63,404.88c0-13.83-9.45-25.83-15.27-31.9-2.35-2.46-7.6-3.61-12.46-2.74-11.7,2.08-34.92,5.54-60.26,7.78-40.14,3.54-104.2,2.7-144.34,0a563.46,563.46,0,0,1-60.25-7.78c-4.87-.87-10.11.28-12.47,2.74-5.82,6.07-15.27,18.07-15.27,31.9,0,16.88,7.94,32.26,22.47,39.4,9.39,4.62,73.54,11,137.69,11s128.31-6.39,137.7-11C468.69,437.14,476.63,421.76,476.63,404.88Z"/><path class="cls-2" d="M325,451.05q-9.21-.14-18.37-.37c-55.57-1.36-112.08-4.26-164.35-21.2-14.9-4.83-29.41-10.79-44.87-13.91S65,412.39,51.09,419,27.37,440.14,31,453.8c4,14.95,21.29,23.67,37.21,29.8,88.94,34.26,187.91,44,284.6,39.68,54.16-2.43,108.26-9.2,160.05-23.29,28.3-7.7,56.55-17.95,78.1-35.89,9.08-7.55,17-16.77,19.58-27.58,7.93-33.65-37.84-40.83-64.84-32.81-17.24,5.13-32.46,14.35-48.66,21.66C444.74,449,384.19,451.89,325,451.05Z"/><g class="cls-5"><path class="cls-2" d="M308.77,521.61c-91.28,0-173.14-13.74-243.85-41-7.92-3.05-19.43-7.93-28-15.11a4.85,4.85,0,0,1,6.25-7.43c7.42,6.24,17.94,10.68,25.21,13.48,80.31,30.93,175.41,44.17,282.64,39.36,59.63-2.68,111.64-10.24,159-23.12,23.71-6.45,53.81-16.25,76.27-34.94a71.13,71.13,0,0,0,11.45-11.74,4.86,4.86,0,0,1,7.78,5.81,80.88,80.88,0,0,1-13,13.39c-23.9,19.89-55.27,30.14-79.93,36.85-48.05,13.07-100.75,20.74-161.1,23.45Q329.8,521.62,308.77,521.61Z"/></g><path class="cls-6" d="M342.85,194.53c-25,0-51.2-10.86-52.31-11.32a4.86,4.86,0,0,1,3.75-9c.26.11,25.54,10.57,48.56,10.57h.09c22.18,0,44.59-8.31,44.81-8.39a4.85,4.85,0,1,1,3.4,9.09c-1,.36-24.29,9-48.2,9Z"/><path class="cls-6" d="M339.83,250.06c-15.68,0-31.83-4.22-42.62-7.77a4.85,4.85,0,1,1,3-9.22c8.28,2.72,24.43,7.28,39.59,7.28,13.88,0,28.9-3.69,33.18-4.82a4.85,4.85,0,1,1,2.48,9.38C369.65,246.46,354.47,250.06,339.83,250.06Z"/><path class="cls-6" d="M335.12,305.59c-9.61,0-20.49-1.59-32.35-4.72a4.86,4.86,0,0,1,2.48-9.39,118.81,118.81,0,0,0,29.87,4.4,122.88,122.88,0,0,0,22.36-2.38,4.86,4.86,0,0,1,1.81,9.54A135.39,135.39,0,0,1,335.12,305.59Z"/><g class="cls-5"><path class="cls-3" d="M447.72,395.86S434.86,407.49,413,412.61C373.67,421.84,331.18,425,331.18,425s45.37,15.55,78.65,12.33,36.22-8.94,36.22-8.94Z"/></g></g></g></g></svg>