<svg xmlns="http://www.w3.org/2000/svg" viewBox="0 0 639.11 553.2"><defs><style>.cls-1{isolation:isolate;}.cls-2{fill:#5d4287;}.cls-3{fill:#fff;}.cls-4{fill:#ff7f00;}.cls-5{mix-blend-mode:multiply;}.cls-6{fill:#f6e59e;}</style></defs><g class="cls-1"><g id="Camada_2" data-name="Camada 2"><g id="Ñëîé_1" data-name="Ñëîé 1"><path class="cls-2" d="M309.06,538.73c-92.43,0-175.65-14-247.34-41.61-9.79-3.78-22.2-9.18-31.86-17.73-1.24-.92-2.43-1.85-3.54-2.79A19.17,19.17,0,0,1,20.85,469a40.74,40.74,0,0,1-5.12-11.48c-5.27-19.71,6.43-41.41,27.84-51.6,9.62-4.58,20.76-6.9,33.1-6.9A113.47,113.47,0,0,1,99,401.37c12,2.43,23.21,6.34,34.06,10.11,2.68.94,5.42,1.9,8.16,2.82a66.43,66.43,0,0,1-.66-9.42c0-18.95,12.09-34.4,19.29-41.92a23.4,23.4,0,0,1,8.81-5.62c-1.38-56.51-3.55-97.43-6.31-118.81-6.8-52.59-34.79-167.25-35.07-168.4a14.36,14.36,0,0,1,0-6.71c0-.51,0-1,.05-1.54.46-6.85,3.91-16.79,17.79-25.3,7.95-4.87,18.88-9,32.5-12.4,25.76-6.35,60-9.7,99.08-9.7,15.48,0,31.5.54,47.6,1.61,48.85,3.26,94.62,11.07,128.88,22C495,51.47,514.72,67.65,513.39,87.58a26.35,26.35,0,0,1-2.92,10.34c-.28.75-.61,1.59-1,2.52-1.64,4.49-32.38,89-50.36,167.3a95.69,95.69,0,0,0-1.68,13.73c-.84,17.46-.84,42.53,0,74.66A24.92,24.92,0,0,1,470.51,363c7.21,7.52,19.3,23,19.3,41.92a68.14,68.14,0,0,1-.41,7.47l.41-.18c4.93-2.23,9.74-4.63,14.84-7.17,11.17-5.57,22.71-11.32,35.64-15.17a92.7,92.7,0,0,1,26-3.59c22.17,0,40.51,7.1,50.32,19.49,5.19,6.56,10.57,17.8,6.72,34.12-2.94,12.44-11.15,24.34-24.41,35.38C573.62,496.3,541,507,515.37,514c-48.73,13.25-102.11,21-163.19,23.77-14.51.66-29,1-43.11,1Z"/><path class="cls-3" d="M276.63,29c14.9,0,30.54.51,46.64,1.58,98.64,6.57,177.3,31.67,175.67,56.07a12.13,12.13,0,0,1-1.66,5.26l-1.34,3.52s-32.27,88-50.9,169.11a112.63,112.63,0,0,0-2,16.11c-1.16,24.07-.59,59.11.39,90.35,1.52-.25,2.93-.5,4.19-.72a18.29,18.29,0,0,1,3.29-.29c3.78,0,7.35,1.12,9.18,3,5.82,6.07,15.27,18.07,15.27,31.9,0,12.63-4.45,24.42-12.77,32.55a245.06,245.06,0,0,0,33.2-12.06c16.2-7.31,31.42-16.53,48.66-21.66a78.47,78.47,0,0,1,21.89-3c24.13,0,49,10.3,42.94,35.8-2.54,10.81-10.5,20-19.57,27.58C568.12,482,539.88,492.29,511.57,500c-51.78,14.09-105.88,20.86-160,23.29q-21.18.94-42.47,1c-82.91,0-166.18-11.4-242.13-40.65-10-3.84-20.5-8.7-28-15.48-1.15-.83-2.27-1.69-3.34-2.59A4.92,4.92,0,0,1,34,462.62a26.76,26.76,0,0,1-4.28-8.82c-3.66-13.66,6.14-28.16,20.07-34.78,8.22-3.91,17.49-5.5,26.88-5.5a98.65,98.65,0,0,1,19.43,2c15.45,3.13,30,9.09,44.86,13.92,8.62,2.79,17.36,5.2,26.19,7.29-7.91-8.11-12.14-19.59-12.14-31.89,0-13.83,9.45-25.83,15.27-31.9,1.83-1.91,5.4-3,9.18-3a18.1,18.1,0,0,1,3.28.29l.67.12c-1-46.71-2.95-104.41-6.73-133.69-7-54-35.37-170-35.37-170l.83,0a11.61,11.61,0,0,1-.43-3.91C143.07,42.41,200.2,29,276.63,29m0-29V0C236.42,0,201,3.5,174.09,10.12c-15.28,3.77-27.26,8.38-36.61,14.12-19.15,11.74-24,26.42-24.67,36.67,0,.31,0,.62,0,.93a29,29,0,0,0,.42,11.73c.28,1.15,28.08,115,34.78,166.81,2.56,19.81,4.61,57.1,6,108.57a34.76,34.76,0,0,0-4.56,4c-12,12.55-19.73,26.86-22.33,41.18a214.21,214.21,0,0,0-25.2-6.94,127.26,127.26,0,0,0-25.17-2.62c-14.51,0-27.74,2.79-39.32,8.31-27.72,13.18-42.69,42-35.6,68.42A54.61,54.61,0,0,0,8,475.77a33.76,33.76,0,0,0,9,11.92c1.19,1,2.44,2,3.75,3,11.3,9.83,25,15.82,35.76,20,73.36,28.25,158.33,42.57,252.54,42.57,14.32,0,29.05-.33,43.77-1,62.15-2.79,116.57-10.73,166.35-24.27,27-7.35,61.55-18.72,89-41.58,15.73-13.09,25.57-27.62,29.24-43.19,4-17.13.68-33.62-9.46-46.42-12.57-15.88-35.05-25-61.67-25A107.39,107.39,0,0,0,536.17,376c-12.45,3.7-23.34,8.83-33.76,14-4.22-16.83-14.64-29.89-21.44-37a36.64,36.64,0,0,0-9.26-6.94c-.57-26.87-.5-48.6.21-63.66A83.28,83.28,0,0,1,473.26,271c17.61-76.64,48.36-161.47,49.82-165.49.24-.61.46-1.19.66-1.72a40.54,40.54,0,0,0,4.1-15.23c.78-11.66-3-28.77-25.54-44-10.94-7.41-26-14.21-44.79-20.21C422.16,13,375.17,5,325.19,1.65,308.78.55,292.44,0,276.63,0Z"/><path class="cls-4" d="M500,88.33s-34.56,87.85-53.19,169c-7.47,32.51.92,184.09.92,184.09s-36.23,13.92-126.06,13.89c-58.41,0-135.92-13.89-135.92-13.89S185,290.67,178,236.67s-35.36-170-35.36-170Z"/><g class="cls-5"><path class="cls-4" d="M446.34,264.5C465,183.37,497.25,95.38,497.25,95.38L320.86,84.7V462.48h.34c89.84,0,126.06-13.89,126.06-13.89S438.87,297,446.34,264.5Z"/></g><ellipse class="cls-2" cx="321.63" cy="74.72" rx="44.28" ry="179.01" transform="translate(225.71 390.68) rotate(-86.19)"/><path class="cls-2" d="M476.63,404.88c0-13.83-9.45-25.83-15.27-31.9-2.35-2.46-7.6-3.61-12.46-2.74-11.7,2.08-34.92,5.54-60.26,7.78-40.14,3.54-104.2,2.7-144.34,0a563.46,563.46,0,0,1-60.25-7.78c-4.87-.87-10.11.28-12.47,2.74-5.82,6.07-15.27,18.07-15.27,31.9,0,16.88,7.94,32.26,22.47,39.4,9.39,4.62,73.54,11,137.69,11s128.31-6.39,137.7-11C468.69,437.14,476.63,421.76,476.63,404.88Z"/><path class="cls-4" d="M325,451.05q-9.21-.14-18.37-.37c-55.57-1.36-112.08-4.26-164.35-21.2-14.9-4.83-29.41-10.79-44.87-13.91S65,412.39,51.09,419,27.37,440.14,31,453.8c4,14.95,21.29,23.67,37.21,29.8,88.94,34.26,187.91,44,284.6,39.68,54.16-2.43,108.26-9.2,160.05-23.29,28.3-7.7,56.55-17.95,78.1-35.89,9.08-7.55,17-16.77,19.58-27.58,7.93-33.65-37.84-40.83-64.84-32.81-17.24,5.13-32.46,14.35-48.66,21.66C444.74,449,384.19,451.89,325,451.05Z"/><g class="cls-5"><path class="cls-4" d="M308.77,521.61c-91.28,0-173.14-13.74-243.85-41-7.92-3.05-19.43-7.93-28-15.11a4.85,4.85,0,0,1,6.25-7.43c7.42,6.24,17.94,10.68,25.21,13.48,80.31,30.93,175.41,44.17,282.64,39.36,59.63-2.68,111.64-10.24,159-23.12,23.71-6.45,53.81-16.25,76.27-34.94a71.13,71.13,0,0,0,11.45-11.74,4.86,4.86,0,0,1,7.78,5.81,80.88,80.88,0,0,1-13,13.39c-23.9,19.89-55.27,30.14-79.93,36.85-48.05,13.07-100.75,20.74-161.1,23.45Q329.8,521.62,308.77,521.61Z"/></g><path class="cls-6" d="M342.85,194.53c-25,0-51.2-10.86-52.31-11.32a4.86,4.86,0,0,1,3.75-9c.26.11,25.54,10.57,48.56,10.57h.09c22.18,0,44.59-8.31,44.81-8.39a4.85,4.85,0,1,1,3.4,9.09c-1,.36-24.29,9-48.2,9Z"/><path class="cls-6" d="M339.83,250.06c-15.68,0-31.83-4.22-42.62-7.77a4.85,4.85,0,1,1,3-9.22c8.28,2.72,24.43,7.28,39.59,7.28,13.88,0,28.9-3.69,33.18-4.82a4.85,4.85,0,1,1,2.48,9.38C369.65,246.46,354.47,250.06,339.83,250.06Z"/><path class="cls-6" d="M335.12,305.59c-9.61,0-20.49-1.59-32.35-4.72a4.86,4.86,0,0,1,2.48-9.39,118.81,118.81,0,0,0,29.87,4.4,122.88,122.88,0,0,0,22.36-2.38,4.86,4.86,0,0,1,1.81,9.54A135.39,135.39,0,0,1,335.12,305.59Z"/><g class="cls-5"><path class="cls-2" d="M447.72,395.86S434.86,407.49,413,412.61C373.67,421.84,331.18,425,331.18,425s45.37,15.55,78.65,12.33,36.22-8.94,36.22-8.94Z"/></g></g></g></g></svg>