<?xml version="1.0" encoding="utf-8"?>
<!-- Generator: Adobe Illustrator 26.0.2, SVG Export Plug-In . SVG Version: 6.00 Build 0)  -->
<svg version="1.1" id="Modo_de_isolamento" xmlns="http://www.w3.org/2000/svg" xmlns:xlink="http://www.w3.org/1999/xlink" x="0px"
	 y="0px" viewBox="0 0 82.8 69.8" style="enable-background:new 0 0 82.8 69.8;" xml:space="preserve">
<style type="text/css">
	.st0{fill:#FFFFFF;}
</style>
<path class="st0" d="M82.5,0.8h0.1V0h-21L42.1,45.9L22.6,0H0v0.8h0.1C3.9,1.7,5.9,3,5.9,7.6v54.5c0,4.7-2,5.9-5.8,6.8H0v0.8h15.4
	v-0.8h-0.1c-3.8-0.9-5.8-2.2-5.8-6.8V10.7l25.1,59H36L61.8,9.1v54.3c-0.3,3.7-2.3,4.8-5.7,5.6H56v0.8h26.8V69h-0.1
	c-3.5-0.8-5.5-1.9-5.8-5.6V7.5l0,0C76.8,3,78.7,1.7,82.5,0.8"/>
</svg>
