<svg xmlns="http://www.w3.org/2000/svg" viewBox="0 0 778.89 240.06"><defs><style>.cls-1{fill:#fff;}</style></defs><g id="Camada_2" data-name="Camada 2"><g id="Camada_1-2" data-name="Camada 1"><path class="cls-1" d="M54,122.23Q84.17,118,81.46,98.75L81.34,98q-2.69-19-32.85-14.79L0,90l8.28,58.59,20.25-2.86-2.76-19.54ZM22.13,100.47,50,96.53q9.39-1.34,10.26,4.89l0,.24q.87,6.14-8.52,7.47l-27.9,3.94Z"/><path class="cls-1" d="M160.21,102.17a17.29,17.29,0,0,0-8.7-3.55q10.38-5,9.09-14.16l-.14-.93q-2.11-15-27.55-11.36L85.66,78.85l8.15,57.65,18.35-2.6-2.89-20.45,23.94-3.39q6.69-.94,9.79,1.07c2.06,1.34,3.35,3.79,3.85,7.36l1.46,10.3,18.43-2.6-2.25-15.89A12.15,12.15,0,0,0,160.21,102.17ZM141.86,90a5.19,5.19,0,0,1-1.23,4.36q-1.59,1.81-5.37,2.34l-27.8,3.93-1.6-11.31,27.8-3.93c2.52-.36,4.46-.1,5.81.76A5.1,5.1,0,0,1,141.85,90Z"/><path class="cls-1" d="M210.35,59.24a102.12,102.12,0,0,0-15.24,3.24,60,60,0,0,0-11.2,4.43,34.44,34.44,0,0,0-7.53,5.41,26.8,26.8,0,0,0-4.72,5.8,22.55,22.55,0,0,0-2.34,6,25.53,25.53,0,0,0-.76,5.57,33.23,33.23,0,0,0,.34,5l.34,2.36a33.74,33.74,0,0,0,1,4.84,25.68,25.68,0,0,0,2.28,5.18,22.65,22.65,0,0,0,3.92,5.14,26.33,26.33,0,0,0,6.2,4.35,35.94,35.94,0,0,0,8.74,3.18,58.31,58.31,0,0,0,12,1.24,100.11,100.11,0,0,0,15.54-1.07l2.75-.39a97.67,97.67,0,0,0,15.18-3.27,59.22,59.22,0,0,0,11.11-4.5,36,36,0,0,0,7.51-5.48,23.11,23.11,0,0,0,7-11.92,24.89,24.89,0,0,0,.8-5.62,34.73,34.73,0,0,0-.34-4.93l-.34-2.36a33.14,33.14,0,0,0-1.05-4.92,25.48,25.48,0,0,0-6.27-10.2A27.26,27.26,0,0,0,249.18,62a34.66,34.66,0,0,0-8.73-3.1,59.72,59.72,0,0,0-11.91-1.17,102.29,102.29,0,0,0-15.45,1.1Zm31.32,26.82a13.43,13.43,0,0,1-.33,5.51,15.21,15.21,0,0,1-3.07,5.53,19.46,19.46,0,0,1-7.57,5.09,48.9,48.9,0,0,1-11.09,3l-2.07.31a49.62,49.62,0,0,1-12.32.22q-5.68-.72-8.65-2.87a16.27,16.27,0,0,1-4.41-4.52,13.59,13.59,0,0,1-1.84-5.2l-.13-1q-2.12-14.89,22.47-18.82c.5-.08,2-.29,2.73-.37a51.85,51.85,0,0,1,9.06-.31,28.56,28.56,0,0,1,7.91,1.41,15,15,0,0,1,5,3,12.55,12.55,0,0,1,2.93,3.77,14.27,14.27,0,0,1,1.2,4.09Z"/><path class="cls-1" d="M288.7,108.2l16.85-20.7,22.1,15.19,25.14-3.55L317.29,74,343.93,41.4l-24.54,3.47L303.77,64.36,283.36,50l-26.77,3.79L291.69,78l-27.61,33.72Z"/><path class="cls-1" d="M369.86,37.79l-20.2,2.85,8.27,58.46,20.2-2.86Z"/><path class="cls-1" d="M388.28,94.89l19.47-2.75L402,51.58l31.19,37L444.08,87l19.73-44.16,5.73,40.56,20-2.83L481.24,22,453.52,25.9,436.26,65.53l-27.5-33.3L380,36.3Z"/><path class="cls-1" d="M547.86,13.11l-30.07,4.25-23.31,62.4L514.35,77l4-11.38,42.26-6,7,9.81,19.88-2.81ZM523.35,51.53l8.16-22.86,6.32-.89L552,47.48l-28.65,4.05Z"/><path class="cls-1" d="M625.68,62.37l6-.85a103.52,103.52,0,0,0,16.22-3.46,46.45,46.45,0,0,0,10.62-4.51,19.41,19.41,0,0,0,5.84-5.41,14.21,14.21,0,0,0,2.47-5.69,20.14,20.14,0,0,0,0-5.9l-.16-1.1q-1.25-8.82-9.87-11.82T630,22.87l-6.12.78-4.77.6a49,49,0,0,1-9.81.51c-2.37-.21-3.89-.58-4.59-1.12a3.41,3.41,0,0,1-1.26-2.31,3.6,3.6,0,0,1,.47-2.6q.7-1,4.5-2.4A50.69,50.69,0,0,1,618.87,14l3-.43a44.67,44.67,0,0,1,7.51-.5,28,28,0,0,1,5.61.49,8.92,8.92,0,0,1,3.21,1.4,7.07,7.07,0,0,1,1.68,1.57,7.66,7.66,0,0,1,.71,1.54l21-3-.11-.79a14.92,14.92,0,0,0-1.71-5.18,14.7,14.7,0,0,0-4.23-4.5,21.31,21.31,0,0,0-7.2-3.32A48.48,48.48,0,0,0,637.17,0a100.74,100.74,0,0,0-15.8,1.11l-6,.85a92.73,92.73,0,0,0-14.8,3.18,44.29,44.29,0,0,0-9.82,4.16,19.42,19.42,0,0,0-5.56,4.92,12.77,12.77,0,0,0-2.45,5.25,17.08,17.08,0,0,0,0,5.35l.1.7q2.33,16.38,34,12.71l4.76-.57,6.39-.77a63.24,63.24,0,0,1,11.18-.57q3.95.29,5.14,1.24a4.2,4.2,0,0,1,1.46,2.85,4.24,4.24,0,0,1-.28,2.4,6.06,6.06,0,0,1-2.16,2.28,18.83,18.83,0,0,1-5.61,2.28,55.33,55.33,0,0,1-8.37,1.7l-4.7.67c-12.34,1.74-17.34-.71-18.68-6.84l-21.12,3,.13.86a20.53,20.53,0,0,0,1.38,5.11A16.76,16.76,0,0,0,590,56.92a19.23,19.23,0,0,0,7,4.28,41.72,41.72,0,0,0,11.63,2,84.36,84.36,0,0,0,17.07-.88Z"/><path class="cls-1" d="M57,178.84l4.21,29.81q.95,6.72-2,11t-10,5.24l-.95.13a19.81,19.81,0,0,1-6.45,0,11.9,11.9,0,0,1-4.39-1.59,10.3,10.3,0,0,1-2.7-2.69,10.81,10.81,0,0,1-2.15-4.73L14,218.55l.07.47a27.23,27.23,0,0,0,1.82,6.67,22.57,22.57,0,0,0,4,6.21,23.17,23.17,0,0,0,6.44,5,28,28,0,0,0,9.53,2.79,47,47,0,0,0,12.74-.23l4.39-.62a41.38,41.38,0,0,0,12.46-3.61,26.73,26.73,0,0,0,8.23-5.85A23.56,23.56,0,0,0,78.17,222a27.3,27.3,0,0,0,1.81-7.9,38.08,38.08,0,0,0-.31-7.59l-4.28-30.28Z"/><path class="cls-1" d="M127.16,166.76A104.27,104.27,0,0,0,111.93,170a60,60,0,0,0-11.21,4.44,34,34,0,0,0-7.52,5.4,26.54,26.54,0,0,0-4.72,5.81,22.05,22.05,0,0,0-2.35,6,26.16,26.16,0,0,0-.76,5.57,33.28,33.28,0,0,0,.35,5l.33,2.37a33.31,33.31,0,0,0,1,4.83,26,26,0,0,0,2.28,5.18,23,23,0,0,0,3.92,5.15,26.53,26.53,0,0,0,6.2,4.34,35.54,35.54,0,0,0,8.74,3.19,59.18,59.18,0,0,0,12,1.24,100.19,100.19,0,0,0,15.54-1.08l2.75-.39a97.67,97.67,0,0,0,15.18-3.27,57.63,57.63,0,0,0,11.11-4.5,35.72,35.72,0,0,0,7.52-5.48,25.47,25.47,0,0,0,4.7-5.89,26.6,26.6,0,0,0,3.14-11.65,33.41,33.41,0,0,0-.34-4.93l-.33-2.36a35.74,35.74,0,0,0-1.05-4.91,24.13,24.13,0,0,0-2.32-5.14,23.25,23.25,0,0,0-4-5.06,26.41,26.41,0,0,0-6.14-4.27,34,34,0,0,0-8.73-3.11,61.24,61.24,0,0,0-11.91-1.17,102.25,102.25,0,0,0-15.44,1.1Zm31.33,26.82a13.77,13.77,0,0,1-.33,5.51,15.29,15.29,0,0,1-3.08,5.54,19.48,19.48,0,0,1-7.57,5.08,48.9,48.9,0,0,1-11.09,3c-.61.11-1.67.26-2.07.31a49.62,49.62,0,0,1-12.32.22c-3.79-.48-6.67-1.43-8.65-2.87a16.09,16.09,0,0,1-4.4-4.52,13.55,13.55,0,0,1-1.85-5.2l-.13-.94q-2.1-14.91,22.48-18.83c.49-.08,2-.29,2.73-.37a52.76,52.76,0,0,1,9-.31,28.93,28.93,0,0,1,7.91,1.41,14.92,14.92,0,0,1,5,3,12.63,12.63,0,0,1,2.92,3.76,14.37,14.37,0,0,1,1.2,4.09Z"/><path class="cls-1" d="M233.76,213.46q21.33-3,29.61-14.53c.64,3.87,1.48,9.09,1.48,9.09L279.4,206l-4.64-32.76-45.43,6.42,1.57,11.08,25.31-3.58,0,.16a2.87,2.87,0,0,1-.53,1.6,11.24,11.24,0,0,1-2.29,2.53,24.74,24.74,0,0,1-4.24,2.88,37.41,37.41,0,0,1-7,2.74,64.5,64.5,0,0,1-9.79,2.11q-12.31,1.74-19-2c-4.46-2.53-7-5.93-7.59-10.23l-.13-.86q-2.22-15.8,22.31-19.27,19.77-2.79,24.15,5.08l21.51-3v-.08a17.39,17.39,0,0,0-1.81-5.23,18.9,18.9,0,0,0-4.63-5.28,25.74,25.74,0,0,0-8.11-4.46,48.17,48.17,0,0,0-12.9-2.14,94.57,94.57,0,0,0-18.43,1l-3.73.53a80.47,80.47,0,0,0-18.5,4.62,42.65,42.65,0,0,0-12,6.7,27.48,27.48,0,0,0-6.52,8.06,23.45,23.45,0,0,0-2.73,8.16,29.91,29.91,0,0,0,.14,7.55l.31,2.2a27.28,27.28,0,0,0,2.15,7.43,25.79,25.79,0,0,0,5.14,7.21,28.67,28.67,0,0,0,8.58,6,42,42,0,0,0,13.15,3.23,74.3,74.3,0,0,0,18.14-.56Z"/><path class="cls-1" d="M469.52,119.54,312.21,141.78l-23.65,62.94,20.13-2.84,4.1-11.48,169.66-24,7.12,9.89,20.13-2.85Zm-151.7,56.7h0l8.27-23.06,133.26-18.84,14.34,19.86Z"/><path class="cls-1" d="M511.58,113.23l8.3,58.73,43-6.08a92.54,92.54,0,0,0,19-4.54,48.54,48.54,0,0,0,12.59-6.45,26.82,26.82,0,0,0,7-7.84,22.78,22.78,0,0,0,3.06-8.2,28.64,28.64,0,0,0-.06-8l-.34-2.37a25.74,25.74,0,0,0-1.77-6.55,27.17,27.17,0,0,0-3.55-6,18.8,18.8,0,0,0-6.14-5,42.65,42.65,0,0,0-9-3.48A51.23,51.23,0,0,0,571.05,106a111.51,111.51,0,0,0-16.53,1.21Zm22.26,11,21.08-3q26-3.69,28.18,11.39l.06.48q2.15,15.15-23.9,18.83l-21.08,3Z"/><path class="cls-1" d="M659.72,93.05l-30.07,4.26-23.32,62.4,19.88-2.81,4-11.38,42.26-6,7,9.81,19.87-2.81Zm-24.51,38.42,8.15-22.85,6.32-.9,14.17,19.7-28.64,4Z"/><path class="cls-1" d="M737.54,142.31l6-.84A104.93,104.93,0,0,0,759.76,138a46.11,46.11,0,0,0,10.61-4.52,19.39,19.39,0,0,0,5.84-5.4,14.3,14.3,0,0,0,2.48-5.69,19.82,19.82,0,0,0,0-5.9l-.15-1.1q-1.25-8.84-9.87-11.82t-26.75-.76l-6.11.77-4.77.61a49,49,0,0,1-9.82.5c-2.36-.2-3.89-.57-4.59-1.12a3.4,3.4,0,0,1-1.25-2.31,3.61,3.61,0,0,1,.47-2.6c.47-.68,2-1.48,4.49-2.4A50.85,50.85,0,0,1,730.72,94l3-.42a43.76,43.76,0,0,1,7.51-.5,27.85,27.85,0,0,1,5.61.49,8.76,8.76,0,0,1,3.21,1.39,7.16,7.16,0,0,1,1.69,1.57,7.25,7.25,0,0,1,.7,1.55l21-3-.12-.79a13.44,13.44,0,0,0-5.93-9.69,21.55,21.55,0,0,0-7.21-3.31A47.8,47.8,0,0,0,749,80a98.45,98.45,0,0,0-15.8,1.11l-6,.85a93.92,93.92,0,0,0-14.8,3.17,45.37,45.37,0,0,0-9.83,4.16,19.38,19.38,0,0,0-5.55,4.93,12.79,12.79,0,0,0-2.45,5.24,16.79,16.79,0,0,0,0,5.35l.1.71q2.31,16.38,34,12.71l4.77-.57,6.39-.77a63.4,63.4,0,0,1,11.18-.58c2.62.2,4.34.61,5.14,1.25a4.19,4.19,0,0,1,1.46,2.84,4.37,4.37,0,0,1-.28,2.41,6.12,6.12,0,0,1-2.16,2.27,18.39,18.39,0,0,1-5.62,2.28,55,55,0,0,1-8.36,1.71l-4.7.66c-12.34,1.75-17.34-.7-18.68-6.83l-21.12,3,.12.87a20.34,20.34,0,0,0,1.39,5.1,16.5,16.5,0,0,0,3.73,5.06,19.32,19.32,0,0,0,6.94,4.28,42.25,42.25,0,0,0,11.64,2,84.43,84.43,0,0,0,17.07-.89Z"/></g></g></svg>