<svg id="Graphic_Elements" data-name="Graphic Elements" xmlns="http://www.w3.org/2000/svg" viewBox="0 0 72 59.4"><defs><style>.cls-1{fill:#fff;}</style></defs><path class="cls-1" d="M1804.12,1034.24a1.55,1.55,0,0,0-1-1.15,5.5,5.5,0,0,0-2.84.2s-63.08,22.68-66.69,25.19c-.77.54-1,.86-1.16,1.22-.63,1.79,1.31,2.58,1.31,2.58l16.26,5.3a1.77,1.77,0,0,0,.83,0c3.7-2.34,37.21-23.5,39.15-24.21.3-.09.53,0,.47.22-.78,2.72-29.89,28.59-29.89,28.59a1.58,1.58,0,0,0-.18.3l0,0-1.51,16.13s-.64,4.94,4.3,0c3.49-3.49,6.86-6.41,8.55-7.82,5.59,3.86,11.61,8.13,14.2,10.36a4.56,4.56,0,0,0,3.3,1.27c2.46-.09,3.15-2.8,3.15-2.8s11.49-46.27,11.88-52.47c0-.6.09-1,.09-1.41A4.84,4.84,0,0,0,1804.12,1034.24Z" transform="translate(-1732.26 -1032.96)"/></svg>